<mxfile host="app.diagrams.net" modified="2023-10-05T20:49:20.524Z" agent="Mozilla/5.0 (Windows NT 10.0; Win64; x64) AppleWebKit/537.36 (KHTML, like Gecko) Chrome/117.0.0.0 Safari/537.36" etag="4S_yshDHb7oKbRwzLOpY" version="22.0.3" type="device">
  <diagram id="C5RBs43oDa-KdzZeNtuy" name="Page-1">
    <mxGraphModel dx="483" dy="813" grid="1" gridSize="10" guides="1" tooltips="1" connect="1" arrows="1" fold="1" page="1" pageScale="1" pageWidth="827" pageHeight="1169" math="0" shadow="0">
      <root>
        <mxCell id="WIyWlLk6GJQsqaUBKTNV-0" />
        <mxCell id="WIyWlLk6GJQsqaUBKTNV-1" parent="WIyWlLk6GJQsqaUBKTNV-0" />
        <mxCell id="S7_N-UKr1pL8a_zZHFVc-11" value="" style="edgeStyle=orthogonalEdgeStyle;rounded=0;orthogonalLoop=1;jettySize=auto;html=1;" edge="1" parent="WIyWlLk6GJQsqaUBKTNV-1" source="S7_N-UKr1pL8a_zZHFVc-5" target="S7_N-UKr1pL8a_zZHFVc-8">
          <mxGeometry relative="1" as="geometry" />
        </mxCell>
        <mxCell id="S7_N-UKr1pL8a_zZHFVc-5" value="Начало" style="strokeWidth=2;html=1;shape=mxgraph.flowchart.terminator;whiteSpace=wrap;" vertex="1" parent="WIyWlLk6GJQsqaUBKTNV-1">
          <mxGeometry x="364" y="375" width="100" height="60" as="geometry" />
        </mxCell>
        <mxCell id="S7_N-UKr1pL8a_zZHFVc-6" value="Конец" style="strokeWidth=2;html=1;shape=mxgraph.flowchart.terminator;whiteSpace=wrap;" vertex="1" parent="WIyWlLk6GJQsqaUBKTNV-1">
          <mxGeometry x="364" y="735" width="100" height="60" as="geometry" />
        </mxCell>
        <mxCell id="S7_N-UKr1pL8a_zZHFVc-16" value="" style="edgeStyle=orthogonalEdgeStyle;rounded=0;orthogonalLoop=1;jettySize=auto;html=1;" edge="1" parent="WIyWlLk6GJQsqaUBKTNV-1" source="S7_N-UKr1pL8a_zZHFVc-7" target="S7_N-UKr1pL8a_zZHFVc-6">
          <mxGeometry relative="1" as="geometry" />
        </mxCell>
        <mxCell id="S7_N-UKr1pL8a_zZHFVc-7" value="Вывести res" style="shape=parallelogram;html=1;strokeWidth=2;perimeter=parallelogramPerimeter;whiteSpace=wrap;rounded=1;arcSize=12;size=0.23;" vertex="1" parent="WIyWlLk6GJQsqaUBKTNV-1">
          <mxGeometry x="294" y="645" width="240" height="60" as="geometry" />
        </mxCell>
        <mxCell id="S7_N-UKr1pL8a_zZHFVc-14" style="edgeStyle=orthogonalEdgeStyle;rounded=0;orthogonalLoop=1;jettySize=auto;html=1;" edge="1" parent="WIyWlLk6GJQsqaUBKTNV-1" source="S7_N-UKr1pL8a_zZHFVc-8" target="S7_N-UKr1pL8a_zZHFVc-9">
          <mxGeometry relative="1" as="geometry" />
        </mxCell>
        <mxCell id="S7_N-UKr1pL8a_zZHFVc-8" value="&lt;div style=&quot;text-align: justify;&quot;&gt;&lt;span style=&quot;background-color: initial;&quot;&gt;A = -10&lt;/span&gt;&lt;sup style=&quot;background-color: initial;&quot;&gt;4&lt;/sup&gt;&lt;span style=&quot;background-color: initial;&quot;&gt;,&amp;nbsp;&lt;/span&gt;&lt;span style=&quot;background-color: initial;&quot;&gt;B = 0.2,&amp;nbsp;&lt;/span&gt;&lt;span style=&quot;background-color: initial;&quot;&gt;C = -0.5,&amp;nbsp;&lt;/span&gt;&lt;span style=&quot;background-color: initial;&quot;&gt;D = 3&lt;/span&gt;&lt;/div&gt;" style="rounded=1;whiteSpace=wrap;html=1;absoluteArcSize=1;arcSize=14;strokeWidth=2;align=center;" vertex="1" parent="WIyWlLk6GJQsqaUBKTNV-1">
          <mxGeometry x="294" y="465" width="240" height="60" as="geometry" />
        </mxCell>
        <mxCell id="S7_N-UKr1pL8a_zZHFVc-15" value="" style="edgeStyle=orthogonalEdgeStyle;rounded=0;orthogonalLoop=1;jettySize=auto;html=1;" edge="1" parent="WIyWlLk6GJQsqaUBKTNV-1" source="S7_N-UKr1pL8a_zZHFVc-9" target="S7_N-UKr1pL8a_zZHFVc-7">
          <mxGeometry relative="1" as="geometry" />
        </mxCell>
        <mxCell id="S7_N-UKr1pL8a_zZHFVc-9" value="res =&amp;nbsp;" style="rounded=1;whiteSpace=wrap;html=1;absoluteArcSize=1;arcSize=14;strokeWidth=2;align=left;" vertex="1" parent="WIyWlLk6GJQsqaUBKTNV-1">
          <mxGeometry x="294" y="555" width="240" height="60" as="geometry" />
        </mxCell>
        <mxCell id="S7_N-UKr1pL8a_zZHFVc-10" value="" style="shape=image;verticalLabelPosition=bottom;labelBackgroundColor=default;verticalAlign=top;aspect=fixed;imageAspect=0;image=data:image/png,iVBORw0KGgoAAAANSUhEUgAAAakAAABFCAMAAADHA+kkAAAAAXNSR0IArs4c6QAAAARnQU1BAACxjwv8YQUAAAC9UExURQAAAAAAAAAAAAAAAAAAAAAAAAAAAAAAAAAAAAAAAAAAAAAAAAAAAAAAAAAAAAAAAAAAAAAAAAAAAAAAAAAAAAAAAAAAAAAAAAAAAAAAAAAAAAAAAAAAAAAAAAAAAAAAAAAAAAAAAAAAAAAAAAAAAAAAAAAAAAAAAAAAAAAAAAAAAAAAAAAAAAAAAAAAAAAAAAAAAAAAAAAAAAAAAAAAAAAAAAAAAAAAAAAAAAAAAAAAAAAAAAAAAAAAAAAAAOvSc8wAAAA+dFJOUwABDA0YGRokJSYxMj0+SktMTVZXWFljZGVxcnN0fX5/i4yNjpmaoKGiqKmstre6u7zExcnK2Nnc3evs8P3+xW0kkgAAAAlwSFlzAAAXEQAAFxEByibzPwAACPtJREFUeF7tnOt62kYQhvEaNVS1QU5xXKMkBGKgdk1NHYJBrfb+L6szs7MHnTDEEjiP9/sR1jotmldz2F2RlpeXl5eXl5eXl5dXbUpPuFG/pNcPqIpHg6Bakj+3K5x3ufXG1Z//yq1SHZ1UtAq59eYVfb/gVomOD0pG3PJqRZtKVE2C2olUmMy45QWaJr9xK69jkxKLxMc+R+FmccrNrBoFtQupWC4EN71A4kF+LGNydFDBWsbcLBN43DGSWHi3/el5bv9LNEjXv3DT1YFJRQUqkVTBL1xKuSzW6tWkALHS42R7id+ZSJlc72fZLAndVTLXcXoLKXH2ZWXj11Uik0tuV6l9vYJrj4Pghk4LN7KkqGgWVIFUsM6bXSzkOoDPKCFb7OU/fTpehHO57PCmEoXJWLT6yX4hNk8iTLCrbqL9v5qUuLtJpCE1S3qt7mZb0Gh1buQEHgDxOZUzohE82fONGgaVJwVY8ijgcUUbBvM+fOflfikrTAgypjpulChY0zUjuVeBmScRrNXzxAGgsD92rw6Zly0dE9mYfGRcXjf1N7rWG6TKlSBRFcPfgUmN9Y1aRZJMeEXbjel3U6ytD09AJYdYPRx7Vph5EgxauRY2diIVPJHJww18BN9Ki+9Baory8Du3prIQ/g4MKhqtC+aKFSmlYF1p8BI5HhoXHwGWOchg3Ul5EjN1lT1JcQOc5KJimOTmpOBv9iQglav+mgaVIxXedVQMcZUhFep8011CdUF+1vmkKoruJAmxNJhYCwWWu7FgQRBd1Z7IRFZxDTlxTj2JsWk6fYJyJHRXJszuRmqmMg+QmsGzVEIK9uhACX984MaxSQW3QVjM6zNpi3QxZDtFSReNCH8BArL0DEqoT0Mhxg5Xa3s8rCJrF0l1llRh4AMQJjOhywTbJypHgk+23exECkoDdfhU/kv1Em3uf4fnjZ/IKC0r8wa6ttBqHFSWFGRUa9txcqUaQIpvUnSXZiNuEndoNW1p+ISaA2xlvXJm6VSTMilM960qDNi8EGKh7Q9dOH3itiwJqgza10mC3wG1L6nFmS4cpvISYx7c9kl57VAkdWBQMXxpkyu44gOZ6Aeb8Otjk7M/RSKdZzj+OBHPaQIG9hy4nBVt0uWa7psrDKjdoakMOSNqtk9QlgR8CdTKjtvs/kyP6qa2kYpShBDTv3hA1nmUjksqGsM/Nqsbn3LyFOUPMuMMxoFsiWpSTvCDq1hqec1wtIXXJqs5NaC+tILp9AnKkqKoDT4vzRE/7FOKEVWDiK104iiXp5oH5ZIKvuCdOfFKC7zBGhziEN1xsITnU8XyalKQrrmFB9mL5IWQkskZn+iQMiksTGCb0yduypDgJwxO0F3uS2oWVpAqSVNIytl8AFAOKQ4fOkY5snEQpZ2O3ItMWknK2BmkMs1W6ZGvcSS6gjIkkXL6xE0uCXPOzIywdyKFNR+aGT5jTUox4vnyclJwOOc0UoOkpCZkScV0p46VrOzdgyLjdKKfEMJKUk5tAcdUu5QSzzHQsWzU6Ew39aV0n7jJJWG62pOUboBvXWhS4FTjU/GQECHYURL9YCufj2oUFKOyoChJuWZ2ZIoBVKQOGKI91OCrkpTNeWDA50A5MU+nNDEJ9OiI/M3pE5QhobvaN/rpIIceZEiJ2xUM4fhtialT+0Xn3IDK0PJrEpRxKkOqz7dVOllkYhCKSmX4wC1isY2UDX4wHnZKgVJ1lgYUnoi1thiOTdcx7nX6BLkk9FcQUHToy+xGClroO/ivITWyzyV8GSj++NA+l1hY+ll8TWcphUqTmkgYX4LgTmlMlBPWcPDMj9sw8OQZiJkcwuCUzKhHSuB6eO65LuGGkuYu3r2fy1XJRV2Fk8Sda+dZ+yUggYtjR3Qlp0+QS+KKAIn+SnVJypNyBfe5Zp8RD9Dqp3DR4EmRingaltX5Jpe4Pby3NzE9jEuRsqTALBidgBPIPtxaFJmuMJub1Z8P7XGiRi9gS5zEgMcatO6oD7AxfpIeccVgmyDa5Q5x1quwyQWf7RPlkFD94NfrWjpbSKn7ZLcQw0StukGZcCk+CUhTtNssWonuHP5aOctn7up806AYlSb1nHhd4lVpm8+gnttfVLShOUtxo0gVp8u13Kncw5DaFRTcdsIx5/WoflJaPLfZ/qtsdgLkhsfmQe1JClC5afY1qDFSsQYUjksxhP/YtfwDgCJUe5BqdXDJ9zWpKVKhee8yKn04u/c29L1KUi1xbYrUV6GmSEXpR9Uwi1EZXbkv5hwElIp/P7GaIgUlIFWi4Yfnz/ekjiuqynf5acuBQHlSL9WhQHm9VJ7UT6KaQfVS+adH34RqBhWOTsJN2fKy10tVM6kzqDQHD3bRy6suNZGkep5U/WqkmhjEPvrVriZI8U9+vOqUAYWv267MjC29z+m+YlGp4AmPBD1Oevpan+06sldNMqBGatWRy2vxQH9VLWtl9XsqL05aIrxPl2r5eRA14KdvXZpUtAF36nzTr2lGFQtapeJ3bcxLGT1IUj0Pq15Zl6I1R3AlCnji1lkPESOKhCjn7RhHg9R6IrQG6J3lR3r9qAyoYKhag5RIRamc92iDCYSk0qkHOACCH8n5KZ1XrTKktCJyD1Uk0HtM4G3XpxgLq6cd9JtQIPwtXcVRXi9RAVRrsFFGb3fvpXoN+vwcnAYqi8FTVTzrKT9EZd7z9KpNRVDiwVYSYHVONuHtKTiOg2C0+cM5dZqaXZ5UMyqSitilSB39IvsUajl3T/Zddif44Sy6j371qwgqeMoMoFTSakUY96buIDjjU07w8xVFIyqCao2ys3XBEzIQD7B1yzLGVNfoVAW6QL3qUUk5kXsrUGUtes0WK43z0le9IRSagOdLvyZUkqTGOX8gbxpRvQC4Op9LIZgJCu9SzagE1J2y8jv6F4X/u4iaIMLRb8Wsg5mgwDjoQdWvAikGJa4wV7Vp0ygCRGr8O9CTr3nZ4Ne5Sb96ULWrAKrPP+Ch4e40BT7tm37+oKLE5zRBUu/e38vV5fPHe+2palCUaXBOPfla/ElnUf/xWfJx4svzJlTMUl5eXl5eXm9Rrdb/7AC66COAzacAAAAASUVORK5CYII=;" vertex="1" parent="WIyWlLk6GJQsqaUBKTNV-1">
          <mxGeometry x="329" y="569.12" width="195.71" height="31.77" as="geometry" />
        </mxCell>
      </root>
    </mxGraphModel>
  </diagram>
</mxfile>
